<svg width="122" height="49" viewBox="0 0 122 49" fill="none" xmlns="http://www.w3.org/2000/svg">
<g clip-path="url(#clip0_209_1447)">
<path d="M38.2332 32.4709L39.7013 29.0394C41.3088 30.2299 43.4055 30.8599 45.5026 30.8599C47.0404 30.8599 48.0188 30.2649 48.0188 29.3547C47.9838 26.8335 38.7575 28.7943 38.6873 22.4557C38.6523 19.2343 41.5183 16.7481 45.5728 16.7481C47.9838 16.7481 50.3957 17.3436 52.1079 18.7095L50.736 22.2141C49.1607 21.2011 47.2149 20.4949 45.3628 20.4949C44.1047 20.4949 43.2656 21.0898 43.2656 21.8607C43.3007 24.3469 52.5976 22.981 52.7024 29.0394C52.7024 32.331 49.906 34.6422 45.9217 34.6422C42.9864 34.6422 40.2953 33.942 38.2327 32.4709H38.2332ZM96.6913 27.7969C96.3207 28.4553 95.7816 29.0033 95.1294 29.3847C94.4771 29.7661 93.7352 29.9672 92.9796 29.9672C90.6248 29.9672 88.7161 28.0545 88.7161 25.6952C88.7161 23.3359 90.6248 21.4232 92.9796 21.4232C93.7352 21.4232 94.4771 21.6243 95.1294 22.0056C95.7816 22.387 96.3207 22.9351 96.6913 23.5935L100.773 21.3279C99.2441 18.5957 96.3279 16.7481 92.9796 16.7481C88.048 16.7481 84.0501 20.7535 84.0501 25.6952C84.0501 30.6364 88.048 34.6422 92.9796 34.6422C96.3279 34.6422 99.2441 32.7947 100.773 30.0624L96.6913 27.7969ZM55.3509 34.2919H60.4535V9.30029H55.3514L55.3509 34.2919ZM103.35 9.30029V34.2919H108.452V26.8044L114.499 34.2919H121.021L113.332 25.397L120.461 17.097H114.219L108.452 23.9975V9.30029H103.35ZM76.1737 17.098V19.1295C75.3351 17.7286 73.2731 16.7481 71.1062 16.7481C66.6327 16.7481 63.103 20.7054 63.103 25.6776C63.103 30.6499 66.6327 34.6422 71.1062 34.6422C73.2731 34.6422 75.3351 33.6618 76.1737 32.2609V34.2919H81.2763V17.098H76.1737ZM76.1737 27.8315C75.4399 29.057 73.9021 29.9667 72.1899 29.9667C69.8346 29.9667 67.9259 28.0545 67.9259 25.6952C67.9259 23.3359 69.8346 21.4232 72.1899 21.4232C73.9021 21.4232 75.4399 22.3685 76.1737 23.6286V27.8315Z" fill="black"/>
<path d="M11.286 8.74829C9.6324 8.74829 8.29209 10.0916 8.29209 11.7482C8.2917 12.1417 8.36883 12.5315 8.51907 12.8953C8.66931 13.259 8.88973 13.5896 9.16773 13.8682C9.44574 14.1467 9.77589 14.3678 10.1393 14.5188C10.5028 14.6698 10.8924 14.7477 11.286 14.7481H14.2803V11.7482C14.281 10.9533 13.9659 10.1907 13.4044 9.62815C12.8428 9.06558 12.0808 8.74909 11.286 8.74829V8.74829ZM11.286 16.748H3.3018C1.64822 16.748 0.307922 18.0913 0.307922 19.7484C0.307922 21.405 1.64822 22.7483 3.3018 22.7483H11.2865C12.9395 22.7483 14.2803 21.405 14.2803 19.7484C14.2803 18.0913 12.9395 16.748 11.286 16.748" fill="#36C5F0"/>
<path d="M30.249 19.7484C30.249 18.0913 28.9082 16.748 27.2547 16.748C25.6011 16.748 24.2608 18.0913 24.2608 19.7484V22.7483H27.2547C28.0495 22.7475 28.8115 22.431 29.3731 21.8684C29.9346 21.3058 30.2497 20.5433 30.249 19.7484V19.7484ZM22.2649 19.7484V11.7482C22.2655 10.9533 21.9504 10.1907 21.3889 9.62815C20.8274 9.06558 20.0654 8.74909 19.2705 8.74829C17.6169 8.74829 16.2766 10.0916 16.2766 11.7482V19.7479C16.2766 21.4055 17.6169 22.7488 19.2705 22.7488C20.0654 22.748 20.8274 22.4315 21.3889 21.8689C21.9504 21.3063 22.2655 20.5438 22.2649 19.7489" fill="#2EB67D"/>
<path d="M19.2705 38.7483C20.0654 38.7475 20.8274 38.431 21.3889 37.8684C21.9504 37.3058 22.2655 36.5433 22.2649 35.7484C22.2655 34.9535 21.9504 34.1909 21.3889 33.6284C20.8274 33.0658 20.0654 32.7493 19.2705 32.7485H16.2766V35.7484C16.2766 37.405 17.6169 38.7483 19.2705 38.7483ZM19.2705 30.7486H27.2552C28.9082 30.7486 30.249 29.4053 30.249 27.7482C30.2497 26.9533 29.9346 26.1907 29.3731 25.6282C28.8115 25.0656 28.0495 24.7491 27.2547 24.7483H19.2705C17.6169 24.7483 16.2766 26.0916 16.2766 27.7482C16.2762 28.1417 16.3533 28.5315 16.5036 28.8953C16.6538 29.259 16.8742 29.5896 17.1523 29.8682C17.4303 30.1467 17.7604 30.3678 18.1239 30.5188C18.4873 30.6698 18.8769 30.7477 19.2705 30.7481" fill="#ECB22E"/>
<path d="M0.307924 27.7482C0.307529 28.1417 0.384654 28.5315 0.534897 28.8953C0.685139 29.259 0.905557 29.5896 1.18356 29.8682C1.46157 30.1467 1.79172 30.3678 2.15517 30.5188C2.51862 30.6698 2.90824 30.7477 3.3018 30.7481C4.09667 30.7473 4.85867 30.4308 5.42021 29.8682C5.98175 29.3056 6.29684 28.5431 6.29618 27.7482V24.7483H3.3018C1.64823 24.7483 0.307924 26.0916 0.307924 27.7482V27.7482ZM8.2921 27.7482V35.7479C8.2921 37.405 9.6324 38.7483 11.286 38.7483C12.0808 38.7475 12.8428 38.431 13.4044 37.8684C13.9659 37.3058 14.281 36.5433 14.2804 35.7484V27.7482C14.2807 27.3546 14.2036 26.9648 14.0533 26.601C13.9031 26.2372 13.6826 25.9066 13.4045 25.628C13.1265 25.3494 12.7963 25.1284 12.4328 24.9774C12.0693 24.8265 11.6796 24.7486 11.286 24.7483C9.6324 24.7483 8.2921 26.0916 8.2921 27.7482Z" fill="#E01E5A"/>
</g>
<defs>
<clipPath id="clip0_209_1447">
<rect width="121" height="48" fill="white" transform="translate(0.307922 0.0446777)"/>
</clipPath>
</defs>
</svg>
