<svg width="50" height="49" viewBox="0 0 50 49" fill="none" xmlns="http://www.w3.org/2000/svg">
<rect x="1" y="0.5" width="48" height="48" rx="24" fill="#3993ED" fill-opacity="0.05"/>
<path d="M25.508 11.5L16.5301 25.9286C16.1785 26.4937 16.0027 26.7762 16.0001 27.0148C15.9977 27.2223 16.0667 27.4196 16.1872 27.55C16.3258 27.7 16.6004 27.7 17.1496 27.7H24.5L23.492 38.5L32.4699 24.0714C32.8215 23.5063 32.9973 23.2238 32.9999 22.9852C33.0023 22.7777 32.9333 22.5804 32.8128 22.45C32.6742 22.3 32.3996 22.3 31.8504 22.3H24.5L25.508 11.5Z" fill="#489BEE"/>
<rect x="1" y="0.5" width="48" height="48" rx="24" stroke="#3993ED" stroke-opacity="0.13"/>
</svg>
