<svg width="50" height="50" viewBox="0 0 50 50" fill="none" xmlns="http://www.w3.org/2000/svg">
<rect x="1" y="1" width="48" height="48" rx="24" fill="#3993ED" fill-opacity="0.05"/>
<path d="M21.75 30.869H15.7917M19.0417 24.9106H14.1667M21.75 18.9523H16.3333M30.4167 15.1606L23.2705 25.1652C22.9542 25.608 22.7961 25.8295 22.8029 26.0141C22.8089 26.1748 22.886 26.3245 23.0133 26.4228C23.1595 26.5356 23.4316 26.5356 23.9758 26.5356H29.3333L28.25 34.6606L35.3961 24.6561C35.7124 24.2132 35.8706 23.9918 35.8637 23.8072C35.8578 23.6465 35.7807 23.4968 35.6534 23.3985C35.5072 23.2856 35.2351 23.2856 34.6909 23.2856H29.3333L30.4167 15.1606Z" stroke="#3993ED" stroke-opacity="0.92" stroke-width="2" stroke-linecap="round" stroke-linejoin="round"/>
<rect x="1" y="1" width="48" height="48" rx="24" stroke="#3993ED" stroke-opacity="0.13"/>
</svg>
