<svg width="50" height="49" viewBox="0 0 50 49" fill="none" xmlns="http://www.w3.org/2000/svg">
<rect x="1" y="0.5" width="48" height="48" rx="24" fill="#3993ED" fill-opacity="0.05"/>
<path d="M37 22.2143H13M23.8 26.7857H17.8M13 20.1571L13 28.8429C13 30.123 13 30.763 13.2616 31.252C13.4917 31.6821 13.8588 32.0317 14.3104 32.2509C14.8238 32.5 15.4959 32.5 16.84 32.5L33.16 32.5C34.5041 32.5 35.1762 32.5 35.6896 32.2509C36.1412 32.0317 36.5083 31.6821 36.7384 31.252C37 30.763 37 30.123 37 28.8429V20.1571C37 18.877 37 18.237 36.7384 17.748C36.5083 17.3179 36.1412 16.9683 35.6896 16.7491C35.1762 16.5 34.5041 16.5 33.16 16.5L16.84 16.5C15.4959 16.5 14.8238 16.5 14.3104 16.7491C13.8588 16.9683 13.4917 17.3179 13.2616 17.748C13 18.237 13 18.877 13 20.1571Z" stroke="#489BEE" stroke-width="2.3" stroke-linecap="round" stroke-linejoin="round"/>
<rect x="1" y="0.5" width="48" height="48" rx="24" stroke="#3993ED" stroke-opacity="0.13"/>
</svg>
