<svg width="50" height="49" viewBox="0 0 50 49" fill="none" xmlns="http://www.w3.org/2000/svg">
<rect x="1" y="0.5" width="48" height="48" rx="24" fill="#3993ED" fill-opacity="0.05"/>
<path d="M17.94 13.236L16.12 15.628C15.7595 16.1018 15.5793 16.3387 15.5835 16.537C15.5871 16.7095 15.6692 16.8713 15.807 16.9777C15.9655 17.1 16.2659 17.1 16.8667 17.1H34.1333C34.7341 17.1 35.0345 17.1 35.193 16.9777C35.3308 16.8713 35.4129 16.7095 35.4165 16.537C35.4207 16.3387 35.2405 16.1018 34.88 15.628L33.06 13.236M17.94 13.236C18.1453 12.9661 18.248 12.8312 18.3781 12.7339C18.4934 12.6477 18.6239 12.5834 18.7629 12.5442C18.92 12.5 19.0911 12.5 19.4333 12.5H31.5667C31.9089 12.5 32.08 12.5 32.237 12.5442C32.3761 12.5834 32.5066 12.6477 32.6219 12.7339C32.752 12.8312 32.8547 12.9661 33.06 13.236M17.94 13.236L15.7467 16.1187C15.4696 16.4828 15.3311 16.6648 15.2327 16.8653C15.1455 17.0432 15.0818 17.2315 15.0433 17.4254C15 17.644 15 17.8715 15 18.3267L15 31.82C15 33.1081 15 33.7522 15.2543 34.2442C15.478 34.6769 15.835 35.0288 16.274 35.2493C16.7731 35.5 17.4265 35.5 18.7333 35.5L32.2667 35.5C33.5735 35.5 34.2268 35.5 34.726 35.2493C35.165 35.0288 35.522 34.6769 35.7457 34.2442C36 33.7522 36 33.1081 36 31.82V18.3267C36 17.8715 36 17.644 35.9567 17.4254C35.9182 17.2315 35.8545 17.0432 35.7673 16.8653C35.6689 16.6648 35.5304 16.4828 35.2533 16.1187L33.06 13.236M30.1667 21.7C30.1667 22.92 29.675 24.09 28.7998 24.9527C27.9247 25.8154 26.7377 26.3 25.5 26.3C24.2623 26.3 23.0753 25.8154 22.2002 24.9527C21.325 24.09 20.8333 22.92 20.8333 21.7" stroke="#489BEE" stroke-width="2.3" stroke-linecap="round" stroke-linejoin="round"/>
<rect x="1" y="0.5" width="48" height="48" rx="24" stroke="#3993ED" stroke-opacity="0.13"/>
</svg>
