<svg width="50" height="49" viewBox="0 0 50 49" fill="none" xmlns="http://www.w3.org/2000/svg">
<rect x="1" y="0.5" width="48" height="48" rx="24" fill="#3993ED" fill-opacity="0.05"/>
<path d="M29.8 31.8333L32.2 34.2778L37 29.3889M25 28.1667H20.2C17.9635 28.1667 16.8452 28.1667 15.9631 28.5388C14.787 29.035 13.8525 29.9867 13.3654 31.1847C13 32.0831 13 33.2221 13 35.5M29.2 13.8554C30.9591 14.5806 32.2 16.3372 32.2 18.3889C32.2 20.4406 30.9591 22.1972 29.2 22.9224M26.8 18.3889C26.8 21.0889 24.651 23.2778 22 23.2778C19.349 23.2778 17.2 21.0889 17.2 18.3889C17.2 15.6888 19.349 13.5 22 13.5C24.651 13.5 26.8 15.6888 26.8 18.3889Z" stroke="#489BEE" stroke-width="2.2" stroke-linecap="round" stroke-linejoin="round"/>
<rect x="1" y="0.5" width="48" height="48" rx="24" stroke="#3993ED" stroke-opacity="0.13"/>
</svg>
