<svg width="50" height="49" viewBox="0 0 50 49" fill="none" xmlns="http://www.w3.org/2000/svg">
<rect x="1" y="0.5" width="48" height="48" rx="24" fill="#3993ED" fill-opacity="0.05"/>
<path d="M37 36.5H16.0444C15.3288 36.5 14.971 36.5 14.6977 36.3607C14.4572 36.2382 14.2618 36.0428 14.1393 35.8023C14 35.529 14 35.1712 14 34.4556V13.5M35.7222 19.8889L30.7148 25.2334C30.525 25.4359 30.4301 25.5372 30.3156 25.5896C30.2146 25.6358 30.1033 25.6548 29.9926 25.6448C29.8673 25.6336 29.7441 25.5696 29.4978 25.4417L25.3356 23.2805C25.0892 23.1526 24.9661 23.0887 24.8407 23.0774C24.7301 23.0674 24.6187 23.0865 24.5177 23.1327C24.4032 23.185 24.3083 23.2863 24.1186 23.4888L19.1111 28.8333" stroke="#489BEE" stroke-width="2.3" stroke-linecap="round" stroke-linejoin="round"/>
<rect x="1" y="0.5" width="48" height="48" rx="24" stroke="#3993ED" stroke-opacity="0.13"/>
</svg>
